# AST/ASF file generated using VICON BodyLanguage
# -----------------------------------------------
:version 1.10
:name VICON
:units
  mass 1.0
  length 0.45
  angle deg
:documentation
   .ast/.asf automatically generated from VICON data using
   VICON BodyBuilder and BodyLanguage model FoxedUp or BRILLIANT.MOD
:root
   order TX TY TZ RX RY RZ
   axis XYZ
   position 0 0 0  
   orientation 0 0 0 
:bonedata
  begin
     id 1 
     name lhipjoint
     direction 0.566809 -0.746272 0.349008 
     length 2.40479 
     axis 0 0 0  XYZ
  end
  begin
     id 2 
     name lfemur
     direction 0.34202 -0.939693 0  
     length 7.1578  
     axis 0 0 20  XYZ
    dof rx ry rz
    limits (-160.0 20.0)
           (-70.0 70.0)
           (-60.0 70.0)
  end
  begin
     id 3 
     name ltibia
     direction 0.34202 -0.939693 0   
     length 7.49137   
     axis 0 0 20   XYZ
    dof rx
    limits (-10.0 170.0)
  end
  begin
     id 4 
     name lfoot
     direction 0.0665746 -0.182912 0.980873   
     length 2.36784   
     axis -90 7.62852e-016 20   XYZ
    dof rx rz
    limits (-45.0 90.0)
           (-70.0 20.0)
  end
  begin
     id 5 
     name ltoes
     direction 1.53601e-011 -4.22058e-011 1   
     length 1.18966   
     axis -90 7.62852e-016 20   XYZ
    dof rx
    limits (-90.0 20.0)
  end
  begin
     id 6 
     name rhipjoint
     direction -0.550236 -0.756381 0.353735   
     length 2.37265  
     axis 0 0 0  XYZ 
  end
  begin
     id 7 
     name rfemur
     direction -0.34202 -0.939693 0   
     length 7.43386   
     axis 0 0 -20   XYZ
    dof rx ry rz
    limits (-160.0 20.0)
           (-70.0 70.0)
           (-70.0 60.0)
  end
  begin
     id 8 
     name rtibia
     direction -0.34202 -0.939693 0   
     length 7.50908   
     axis 0 0 -20   XYZ
    dof rx
    limits (-10.0 170.0)
 end
 begin
     id 9 
     name rfoot
     direction -0.0683029 -0.187661 0.979856   
     length 2.41173  
     axis -90 -7.62852e-016 -20   XYZ
    dof rx rz
    limits (-45.0 90.0)
           (-20.0 70.0)
  end
  begin
     id 10 
     name rtoes
     direction -1.53528e-011 -4.21968e-011 1   
     length 1.21082   
     axis -90 -7.62852e-016 -20   XYZ
    dof rx
    limits (-90.0 20.0)
  end
  begin
     id 11 
     name lowerback
     direction 0.013823 0.995423 -0.0945635   
     length 2.04495   
     axis 0 0 0   XYZ
    dof rx ry rz
    limits (-20.0 45.0)
           (-30.0 30.0)
           (-30.0 30.0)
  end
  begin
     id 12 
     name upperback
     direction 0.0276657 0.9994 -0.020853   
     length 2.05008   
     axis 0 0 0   XYZ
    dof rx ry rz
    limits (-20.0 45.0)
           (-30.0 30.0)
           (-30.0 30.0)
  end
  begin
     id 13 
     name thorax
     direction 0.019782 0.999531 0.0233827   
     length 2.06488   
     axis 0 0 0   XYZ
    dof rx ry rz
    limits (-20.0 45.0)
           (-30.0 30.0)
           (-30.0 30.0)
  end
  begin
     id 14 
     name lowerneck
     direction -0.0308541 0.994709 0.0979874   
     length 1.75553   
     axis 0 0 0   XYZ
    dof rx ry rz
    limits (-20.0 45.0)
           (-30.0 30.0)
           (-30.0 30.0)
  end
  begin
     id 15 
     name upperneck
     direction 0.0588398 0.995804 -0.0700903   
     length 1.76878   
     axis 0 0 0   XYZ
    dof rx ry rz
    limits (-20.0 45.0)
           (-30.0 30.0)
           (-30.0 30.0)
  end
  begin
     id 16
     name head
     direction 0.0209966 0.999159 -0.0352225  
     length 1.77193  
     axis 0 0 0   XYZ
    dof rx ry rz
    limits (-20.0 45.0)
           (-30.0 30.0)
           (-30.0 30.0)
  end
  begin
     id 17 
     name lclavicle
     direction 0.938182 0.335073 -0.0868338  
     length 3.58396  
     axis 0 0 0   XYZ
    dof ry rz
    limits (-20.0 10.0)
           (0.0 20.0)
  end
  begin
     id 18 
     name lhumerus
     direction 1 -4.48971e-011 -1.26313e-017   
     length 4.983   
     axis 180 -30 -90   XYZ
    dof rx ry rz
    limits (-60.0 90.0)
           (-90.0 90.0)
           (-90.0 90.0)
  end
  begin
     id 19
     name lradius
     direction 1 -4.48948e-011 -5.89033e-027   
     length 3.48356   
     axis 180 -30 -90   XYZ
    dof rx
    limits (-10.0 170.0)
  end
  begin
     id 20
     name lwrist
     direction 1 -4.48977e-011 -1.48983e-026   
     length 1.74178   
     axis 9.0955e-015 90 90   XYZ
    dof ry
    limits (-180.0 0.0)
 end
  begin
     id 21 
     name lhand
     direction 1 -4.49046e-011 -2.98066e-026   
     length 0.715259   
     axis 1.90115e-014 90 90   XYZ
    dof rx rz
    limits (-90.0 90.0)
           (-45.0 45.0)
  end
  begin
     id 22 
     name lfingers
     direction 1 -4.48907e-011 -5.95731e-026   
     length 0.576661   
     axis 3.80223e-014 90 90   XYZ
    dof rx
    limits (0.0 90.0)
  end
  begin
     id 23
     name lthumb
     direction 0.707107 -6.34963e-011 0.707107   
     length 0.827973   
     axis -90 45 -3.84942e-014   XYZ
    dof rx rz
    limits (-45.0 45.0)
           (-45.0 45.0)
  end
  begin
     id 24 
     name rclavicle
     direction -0.909637 0.398485 -0.11735   
     length 3.44819  
     axis 0 0 0   XYZ 
    dof ry rz
    limits (-10.0 20.0)
           (-20.0 0.0)
  end
  begin
     id 25 
     name rhumerus
     direction -1 -4.48978e-011 -1.09333e-027  
     length 5.2419   
     axis 180 30 90   XYZ
    dof rx ry rz
    limits (-90.0 60.0)
           (-90.0 90.0)
           (-90.0 90.0)
  end
  begin
     id 26 
     name rradius
     direction -1 -4.48953e-011 -7.61841e-027   
     length 3.44417   
     axis 180 30 90   XYZ
    dof rx
    limits (-10.0 170.0)
  end
  begin
     id 27 
     name rwrist
     direction -1 -4.48977e-011 -1.48983e-026   
     length 1.72209   
     axis 9.0955e-015 -90 -90   XYZ
    dof ry
    limits (-180.0 0.0)
  end
  begin
     id 28
     name rhand
     direction -1 -4.49027e-011 -2.98038e-026   
     length 0.622529   
     axis 1.90115e-014 -90 -90   XYZ
    dof rx rz
    limits (-90.0 90.0)
           (-45.0 45.0)
  end
  begin
     id 29
     name rfingers
     direction -1 -4.48838e-011 -5.95531e-026   
     length 0.501899   
     axis 3.80223e-014 -90 -90   XYZ
    dof rx
    limits (0.0 90.0)
  end
  begin
     id 30
     name rthumb
     direction -0.707107 -6.34937e-011 0.707107   
     length 0.720629   
     axis -90 -45 3.84942e-014   XYZ
    dof rx rz
    limits (-45.0 45.0)
           (-45.0 45.0)
  end
:hierarchy
  begin
    root lhipjoint rhipjoint lowerback
    lhipjoint lfemur
    lfemur ltibia
    ltibia lfoot
    lfoot ltoes
    rhipjoint rfemur
    rfemur rtibia
    rtibia rfoot
    rfoot rtoes
    lowerback upperback
    upperback thorax
    thorax lowerneck lclavicle rclavicle
    lowerneck upperneck
    upperneck head
    lclavicle lhumerus
    lhumerus lradius
    lradius lwrist
    lwrist lhand lthumb
    lhand lfingers
    rclavicle rhumerus
    rhumerus rradius
    rradius rwrist
    rwrist rhand rthumb
    rhand rfingers
  end

#!OML:ASF F:\VICON\USERDATA\Patient Classification 1\PLAYGROUND\JustinFriday\JustinFriday.ASF
:FULLY-SPECIFIED
:DEGREES
1269
root -23.3257 23.701 -8.63358 235.552 87.5024 -132.201
lowerback 39.2636 1.6302 -2.48718
upperback 11.7481 3.26662 5.56899
thorax -6.52078 1.99435 5.8915
lowerneck -6.33554 -6.37426 -6.56786
upperneck 24.9763 -7.54954 2.24546
head 9.23005 -3.64334 1.16694
rclavicle -5.56597e-015 -6.36111e-015
rhumerus 31.1817 13.0511 -71.033
rradius 68.687
rwrist 25.2677
rhand -42.7631 -26.5642
rfingers 7.12502
rthumb -15.6302 -55.9528
lclavicle -5.56597e-015 -6.36111e-015
lhumerus 65.5293 9.86906 57.3477
lradius 43.1929
lwrist -6.10321
lhand 9.05255 -19.9971
lfingers 7.12502
lthumb 34.2272 6.73591
rfemur -57.4323 -2.46945 26.9976
rtibia 79.484
rfoot -32.73 -8.55561
rtoes 8.61413
lfemur -18.2728 2.23862 -17.8492
ltibia 18.5564
lfoot 5.64864 -1.31881
ltoes -6.25366
1270
root -23.3702 23.5891 -8.66132 233.09 87.3455 -134.576
lowerback 39.2527 1.5666 -2.54707
upperback 11.5834 3.15754 5.61098
thorax -6.69395 1.94027 6.00899
lowerneck -6.14233 -6.3827 -5.39098
upperneck 25.4315 -7.56688 1.57829
head 9.27055 -3.60108 0.74981
rclavicle -2.62396e-014 -2.38542e-014
rhumerus 30.9611 13.4774 -70.2815
rradius 68.9777
rwrist 24.4366
rhand -45.5939 -28.4358
rfingers 7.12502
rthumb -18.3551 -57.5898
lclavicle -2.62396e-014 -2.38542e-014
lhumerus 65.9447 10.1588 57.6734
lradius 42.542
lwrist -6.7006
lhand 9.18957 -21.2905
lfingers 7.12502
lthumb 34.3573 5.4132
rfemur -58.0222 -3.01497 27.4646
rtibia 80.3471
rfoot -31.8503 -12.5662
rtoes -0.550827
lfemur -18.196 0.0242013 -17.6143
ltibia 18.8245
lfoot 5.80257 1.59498
ltoes -1.09332
1271
root -23.4165 23.5001 -8.67669 249.617 87.7994 -117.614
lowerback 39.631 2.02163 -3.17964
upperback 11.6018 3.4455 5.43811
thorax -6.83493 2.06903 6.03093
lowerneck -6.32173 -5.99869 -3.93069
upperneck 25.3632 -7.17359 1.14472
head 9.17825 -3.3326 0.398782
rclavicle 2.22639e-014 7.23576e-014
rhumerus 31.1809 13.4455 -70.8072
rradius 69.4055
rwrist 24.3438
rhand -45.9032 -27.2647
rfingers 7.12502
rthumb -18.6526 -56.3904
lclavicle 2.22639e-014 7.23576e-014
lhumerus 66.3921 10.4176 57.3561
lradius 42.1304
lwrist -6.83832
lhand 9.27608 -22.5525
lfingers 7.12502
lthumb 34.4394 4.13264
rfemur -58.1593 -2.22352 27.4497
rtibia 81.1954
rfoot -31.9096 -13.2237
rtoes -1.81046
lfemur -17.4922 -0.614454 -17.5122
ltibia 18.9494
lfoot 5.12946 3.93716
ltoes 8.95443
1272
root -23.4638 23.4399 -8.69714 261.804 87.9337 -105.015
lowerback 39.6889 1.69917 -4.17447
upperback 11.8403 2.70643 5.57195
thorax -6.5338 1.6982 7.00229
lowerneck -6.5457 -5.23029 -4.91354
upperneck 25.1931 -5.92979 0.917665
head 9.15591 -2.87866 0.604739
rclavicle -7.15625e-015 -1.70955e-014
rhumerus 32.7819 15.3339 -71.5387
rradius 68.6135
rwrist 24.655
rhand -46.347 -25.4415
rfingers 7.12502
rthumb -19.0794 -54.5257
lclavicle -7.15625e-015 -1.70955e-014
lhumerus 64.5275 12.6356 55.2586
lradius 42.8123
lwrist -5.42425
lhand 8.22686 -21.811
lfingers 7.12502
lthumb 33.4427 5.09473
rfemur -58.3961 -1.10581 26.5225
rtibia 82.2513
rfoot -34.174 -5.96266
rtoes 15.4033
lfemur -16.9319 0.258861 -17.8122
ltibia 19.1187
lfoot 4.89624 2.77704
ltoes 10.1546
1273
root -23.5047 23.3849 -8.71968 272.174 87.5364 -94.2707
lowerback 39.8679 1.90405 -2.96295
upperback 11.7354 3.41824 5.675
thorax -6.77135 2.05332 6.18038
lowerneck -6.17621 -5.82194 -5.78168
upperneck 25.2316 -6.71364 1.41022
head 9.18374 -3.26409 0.84584
rclavicle 1.59028e-015 -2.94201e-014
rhumerus 32.5691 13.6405 -71.4843
rradius 68.1616
rwrist 24.95
rhand -46.7873 -23.6756
rfingers 7.12502
rthumb -19.5028 -52.7174
lclavicle 1.59028e-015 -2.94201e-014
lhumerus 64.6753 11.4675 54.5551
lradius 43.5041
lwrist -3.90406
lhand 6.27893 -20.4637
lfingers 7.12502
lthumb 31.5891 6.82378
rfemur -58.7057 -0.550081 26.9697
rtibia 83.0111
rfoot -34.1111 -7.10329
rtoes 13.6979
lfemur -16.4065 0.862033 -17.6379
ltibia 19.2194
lfoot 4.13295 0.540907
ltoes 6.31794
1274
root -23.5486 23.28 -8.76995 269.114 87.3066 -97.259
lowerback 39.811 1.55634 -1.92889
upperback 11.5929 3.35629 5.49602
thorax -6.84686 2.04086 5.46827
lowerneck -5.83286 -5.79068 -5.79812
upperneck 24.9514 -6.73422 1.60642
head 9.02933 -3.25872 0.925093
rclavicle 7.15625e-015 -1.03368e-014
rhumerus 32.5261 12.8923 -70.8603
rradius 68.8832
rwrist 24.0615
rhand -47.0179 -22.207
rfingers 7.12502
rthumb -19.7245 -51.2262
lclavicle 7.15625e-015 -1.03368e-014
lhumerus 65.1898 11.1811 54.5978
lradius 43.3235
lwrist -3.95128
lhand 5.15252 -20.8101
lfingers 7.12502
lthumb 30.5154 6.68264
rfemur -59.2735 -0.670637 26.9458
rtibia 83.9343
rfoot -34.6107 -6.30406
rtoes 15.4533
lfemur -16.4541 0.371795 -17.6379
ltibia 19.459
lfoot 2.4815 -1.19119
ltoes 5.24361
1275
root -23.5975 23.1789 -8.84686 268.904 87.5415 -97.2467
lowerback 39.8392 0.87732 -2.30733
upperback 11.7489 2.41081 5.57723
thorax -6.59587 1.5893 6.13683
lowerneck -6.524 -5.15158 -7.2078
upperneck 25.2026 -5.62439 1.64991
head 9.25775 -2.87011 1.26753
rclavicle -5.56597e-015 -6.48038e-014
rhumerus 33.8693 15.1682 -70.5806
rradius 68.8737
rwrist 23.9076
rhand -47.5226 -20.9379
rfingers 7.12502
rthumb -20.2096 -49.9066
lclavicle -5.56597e-015 -6.48038e-014
lhumerus 64.5875 13.2533 55.0023
lradius 42.9337
lwrist -4.88125
lhand 4.30825 -21.4761
lfingers 7.12502
lthumb 29.7099 6.16331
rfemur -59.9262 -1.33231 26.5802
rtibia 84.9194
rfoot -34.7041 -5.68539
rtoes 14.9097
lfemur -16.5258 0.224969 -18.1169
ltibia 20.0451
lfoot 0.527452 -2.55755
ltoes 6.3873
1276
root -23.6339 23.0861 -8.85852 295.556 87.7407 -69.9692
lowerback 40.1947 1.90981 -2.86221
upperback 11.7758 3.38284 5.03874
thorax -6.75892 2.05077 5.44967
lowerneck -6.73151 -5.48763 -5.23098
upperneck 25.6048 -6.30756 1.3582
head 9.37679 -3.02763 0.761689
rclavicle 1.19271e-014 -3.4191e-014
rhumerus 33.5461 13.5213 -71.288
rradius 68.8365
rwrist 23.9068
rhand -48.0558 -19.46
rfingers 7.12502
rthumb -20.7221 -48.3736
lclavicle 1.19271e-014 -3.4191e-014
lhumerus 66.0897 11.9183 55.325
lradius 42.8041
lwrist -5.50959
lhand 3.34183 -21.5351
lfingers 7.12502
lthumb 28.7871 6.26503
rfemur -59.9497 -0.735309 26.3175
rtibia 85.9056
rfoot -34.7475 -5.50449
rtoes 13.855
lfemur -16.0117 1.23054 -18.47
ltibia 20.8284
lfoot -1.67646 -3.00359
ltoes 8.45369
1277
root -23.6815 22.986 -8.87981 301.91 87.8645 -63.4334
lowerback 39.9768 1.82323 -3.90458
upperback 11.8957 2.94627 5.56641
thorax -6.5872 1.81428 6.75135
lowerneck -6.73339 -5.41497 -7.34884
upperneck 25.7361 -5.86008 1.39523
head 9.49876 -3.01211 1.17167
rclavicle -2.78299e-014 -5.24792e-014
rhumerus 34.6197 15.4575 -69.6997
rradius 68.9106
rwrist 22.9277
rhand -48.6103 -18.0393
rfingers 7.12502
rthumb -21.2547 -46.8939
lclavicle -2.78299e-014 -5.24792e-014
lhumerus 65.3156 13.4831 56.4603
lradius 42.8246
lwrist -6.40812
lhand 2.72896 -21.5613
lfingers 7.12502
lthumb 28.2015 6.33694
rfemur -60.6487 -0.767727 26.1085
rtibia 86.9422
rfoot -34.6749 -4.86902
rtoes 14.7072
lfemur -16.1008 0.805328 -18.885
ltibia 21.4796
lfoot -4.00021 -1.62011
ltoes 4.41778
1278
root -23.7282 22.8988 -8.91444 301.963 87.7021 -63.2021
lowerback 39.9409 1.91828 -3.48244
upperback 11.9393 3.20088 5.34749
thorax -6.52755 1.94642 6.19077
lowerneck -6.54937 -5.38941 -7.69775
upperneck 24.9433 -5.93269 1.85565
head 9.21368 -3.03799 1.3858
rclavicle 2.38542e-014 2.94201e-014
rhumerus 34.8302 14.5158 -69.9356
rradius 68.8585
rwrist 22.8112
rhand -49.0917 -16.1568
rfingers 7.12502
rthumb -21.717 -44.9586
lclavicle 2.38542e-014 2.94201e-014
lhumerus 66.1726 12.9835 56.4652
lradius 43.1851
lwrist -6.74956
lhand 2.0203 -20.5901
lfingers 7.12502
lthumb 27.524 7.41799
rfemur -61.3489 -0.640932 26.1258
rtibia 87.9134
rfoot -34.5968 -4.70842
rtoes 15.6857
lfemur -16.3231 0.485245 -19.0146
ltibia 22.3297
lfoot -6.27427 -0.0361605
ltoes 1.42678
1279
root -23.7691 22.8381 -8.94893 299.388 87.3671 -65.4952
lowerback 39.9822 1.51297 -3.959
upperback 12.0241 2.5634 5.61706
thorax -6.39893 1.62798 6.99187
lowerneck -6.49266 -4.85164 -7.00139
upperneck 25.0968 -5.15582 1.20346
head 9.17271 -2.68269 1.12979
rclavicle -1.59028e-015 -1.70955e-014
rhumerus 36.1594 16.2903 -70.978
rradius 68.202
rwrist 23.5343
rhand -49.4701 -13.771
rfingers 7.12502
rthumb -22.0804 -42.5304
lclavicle -1.59028e-015 -1.70955e-014
lhumerus 65.3385 14.7667 56.9289
lradius 43.4445
lwrist -8.32584
lhand 0.98383 -19.6972
lfingers 7.12502
lthumb 26.5324 8.46474
rfemur -61.7655 -0.379266 26.2608
rtibia 88.809
rfoot -34.7467 -4.13701
rtoes 18.5621
lfemur -16.4485 0.0367961 -18.5728
ltibia 23.2896
lfoot -8.80049 0.0533799
ltoes 14.0246
